<svg width="409" height="121" viewBox="0 0 409 121" fill="none" xmlns="http://www.w3.org/2000/svg">
<path d="M76.67 87.139C76.67 94.1144 74.9133 100.054 71.4 104.959C67.8867 109.755 62.8433 113.46 56.27 116.076C49.81 118.692 42.16 120 33.32 120C28.7867 120 24.4233 119.782 20.23 119.346C16.15 118.91 12.41 118.311 9.01 117.548C5.61 116.676 2.60667 115.64 0 114.441V100.381C4.08 102.125 9.12333 103.706 15.13 105.123C21.25 106.54 27.54 107.248 34 107.248C40.0067 107.248 45.05 106.485 49.13 104.959C53.21 103.433 56.27 101.253 58.31 98.4196C60.35 95.5858 61.37 92.2616 61.37 88.4469C61.37 84.6321 60.52 81.4169 58.82 78.8011C57.12 76.1853 54.1733 73.7875 49.98 71.6076C45.9 69.3188 40.1767 66.921 32.81 64.4142C27.5967 62.5613 23.0067 60.5995 19.04 58.5286C15.1867 56.3488 11.9567 53.8965 9.35 51.1717C6.74333 48.4469 4.76 45.3406 3.4 41.8529C2.15333 38.3651 1.53 34.3324 1.53 29.7548C1.53 23.5422 3.17333 18.2561 6.46 13.8965C9.74667 9.42779 14.28 5.99455 20.06 3.59673C25.9533 1.19891 32.6967 0 40.29 0C46.9767 0 53.0967 0.599454 58.65 1.79836C64.2033 2.99728 69.2467 4.57766 73.78 6.53951L69.02 19.1281C64.8267 17.3842 60.2367 15.9128 55.25 14.7139C50.3767 13.515 45.2767 12.9155 39.95 12.9155C34.85 12.9155 30.6 13.624 27.2 15.0409C23.8 16.4578 21.25 18.4741 19.55 21.0899C17.85 23.5967 17 26.5395 17 29.9183C17 33.842 17.85 37.1117 19.55 39.7275C21.25 42.3433 24.0267 44.6866 27.88 46.7575C31.7333 48.8283 36.9467 51.0627 43.52 53.4605C50.66 55.9673 56.6667 58.6921 61.54 61.6349C66.5267 64.4687 70.2667 67.9019 72.76 71.9346C75.3667 75.9673 76.67 81.0354 76.67 87.139Z" fill="#F2C080"/>
<path d="M265.13 0C280.997 0 292.557 3.08123 299.81 9.2437C307.063 15.4062 310.69 24.0896 310.69 35.2941C310.69 40.2241 309.84 44.986 308.14 49.5798C306.553 54.0616 303.89 58.0952 300.15 61.6807C296.41 65.2661 291.423 68.1232 285.19 70.2521C278.957 72.2689 271.307 73.2773 262.24 73.2773H248.3V120H233V0H265.13ZM263.77 12.9412H248.3V60.3361H260.54C268.247 60.3361 274.65 59.5518 279.75 57.9832C284.85 56.3025 288.647 53.6695 291.14 50.084C293.633 46.4986 294.88 41.7927 294.88 35.9664C294.88 28.2353 292.387 22.465 287.4 18.6555C282.413 14.8459 274.537 12.9412 263.77 12.9412Z" fill="#F2C080"/>
<path d="M363.13 0C378.997 0 390.557 3.08123 397.81 9.2437C405.063 15.4062 408.69 24.0896 408.69 35.2941C408.69 40.2241 407.84 44.986 406.14 49.5798C404.553 54.0616 401.89 58.0952 398.15 61.6807C394.41 65.2661 389.423 68.1232 383.19 70.2521C376.957 72.2689 369.307 73.2773 360.24 73.2773H346.3V120H331V0H363.13ZM361.77 12.9412H346.3V60.3361H358.54C366.247 60.3361 372.65 59.5518 377.75 57.9832C382.85 56.3025 386.647 53.6695 389.14 50.084C391.633 46.4986 392.88 41.7927 392.88 35.9664C392.88 28.2353 390.387 22.465 385.4 18.6555C380.413 14.8459 372.537 12.9412 361.77 12.9412Z" fill="#F2C080"/>
<rect x="187" y="19" width="14" height="101.019" fill="#F2C080"/>
<path d="M213 111L213 120L175 120L175 111L213 111Z" fill="#F2C080"/>
<path d="M208 106L208 111L182 111L182 106L208 106Z" fill="#F2C080"/>
<rect x="207" y="23" width="5.6136" height="26" transform="rotate(90 207 23)" fill="#F2C080"/>
<ellipse cx="194" cy="9.67742" rx="10" ry="9.67742" fill="#F2C080"/>
<rect x="97" width="15" height="120" fill="#F2C080"/>
<rect x="112" y="106.229" width="44" height="13.7705" fill="#F2C080"/>
</svg>
