<svg width="575" height="383" viewBox="0 0 575 383" fill="none" xmlns="http://www.w3.org/2000/svg">
<mask id="path-1-inside-1_107_2" fill="white">
<path d="M350.5 0H49.5C48.1486 15.0152 45.6508 23.3324 34.5 35C22.8877 45.667 15.2002 48.1156 0 49.5V333.5C15.9757 334.45 23.8883 338.582 35 348.5C45.6807 360.843 48.7559 368.311 49.5 383H350.5C351.218 372.678 353.212 367.795 360.5 360C368.334 353.261 373.503 350.794 384.5 350.5C394.187 350.913 399.27 353.103 407.5 360C414.421 367.299 416.733 372.48 417.5 383H525.5C526.582 366.426 530.693 359.099 540 348.5C551.922 337.744 559.967 334.453 575 333.5V49.5C559.282 48.6026 551.903 45.0811 540.5 35C529.595 22.9681 526.541 14.9155 525.5 0H417.5C416.736 9.35441 414.89 14.7664 407 23.5C398.807 30.4541 391.399 32.8028 383.5 32.5C375.601 32.1972 368.418 30.0707 360.5 23C353.736 15.4463 351.236 10.4635 350.5 0Z"/>
</mask>
<path d="M350.5 0H49.5C48.1486 15.0152 45.6508 23.3324 34.5 35C22.8877 45.667 15.2002 48.1156 0 49.5V333.5C15.9757 334.45 23.8883 338.582 35 348.5C45.6807 360.843 48.7559 368.311 49.5 383H350.5C351.218 372.678 353.212 367.795 360.5 360C368.334 353.261 373.503 350.794 384.5 350.5C394.187 350.913 399.27 353.103 407.5 360C414.421 367.299 416.733 372.48 417.5 383H525.5C526.582 366.426 530.693 359.099 540 348.5C551.922 337.744 559.967 334.453 575 333.5V49.5C559.282 48.6026 551.903 45.0811 540.5 35C529.595 22.9681 526.541 14.9155 525.5 0H417.5C416.736 9.35441 414.89 14.7664 407 23.5C398.807 30.4541 391.399 32.8028 383.5 32.5C375.601 32.1972 368.418 30.0707 360.5 23C353.736 15.4463 351.236 10.4635 350.5 0Z" fill="#F2C080"/>
<path d="M49.5 0V-50H3.79799L-0.298714 -4.48198L49.5 0ZM350.5 0L400.377 -3.5103L397.105 -50H350.5V0ZM417.5 0V-50H371.415L367.666 -4.0677L417.5 0ZM525.5 0L575.379 -3.48024L572.133 -50H525.5V0ZM575 49.5H625V2.27316L577.85 -0.418712L575 49.5ZM575 333.5L578.163 383.4L625 380.431V333.5H575ZM525.5 383V433H572.341L575.394 386.258L525.5 383ZM417.5 383L367.633 386.638L371.014 433H417.5V383ZM350.5 383V433H397.142L400.379 386.47L350.5 383ZM49.5 383L-0.435969 385.53L1.96875 433H49.5V383ZM0 333.5H-50V380.615L-2.96787 383.412L0 333.5ZM0 49.5L-4.53528 -0.293888L-50 3.84708V49.5H0ZM34.5 35L68.3249 71.8223L69.5229 70.7217L70.6469 69.5457L34.5 35ZM360.5 23L323.251 56.3548L325.113 58.4343L327.195 60.2935L360.5 23ZM407 23.5L439.355 61.6199L441.881 59.4762L444.102 57.0179L407 23.5ZM540.5 35L503.453 68.5783L505.31 70.6279L507.383 72.4601L540.5 35ZM540 348.5L506.506 311.376L504.348 313.324L502.43 315.508L540 348.5ZM407.5 360L443.782 325.596L441.811 323.518L439.616 321.678L407.5 360ZM384.5 350.5L386.632 300.545L384.899 300.472L383.165 300.518L384.5 350.5ZM360.5 360L327.895 322.094L325.833 323.867L323.976 325.853L360.5 360ZM35 348.5L72.8096 315.783L70.7002 313.345L68.2953 311.198L35 348.5ZM49.5 50H350.5V-50H49.5V50ZM417.5 50H525.5V-50H417.5V50ZM525 49.5V333.5H625V49.5H525ZM525.5 333H417.5V433H525.5V333ZM350.5 333H49.5V433H350.5V333ZM50 333.5V49.5H-50V333.5H50ZM4.53528 99.2939C13.5462 98.4732 25.0946 97.004 37.2347 92.1269C49.9325 87.0256 59.8024 79.651 68.3249 71.8223L0.675134 -1.82226C-0.122658 -1.0894 -0.701553 -0.597702 -1.09498 -0.28018C-1.48314 0.033091 -1.65994 0.151796 -1.64961 0.144816C-1.52777 0.0624704 -0.932924 -0.307722 -0.0437496 -0.664942C0.795128 -1.00195 1.17991 -1.03795 0.628868 -0.930824C-0.0811524 -0.792796 -1.55374 -0.56545 -4.53528 -0.293888L4.53528 99.2939ZM70.6469 69.5457C79.1652 60.6326 86.8066 50.4264 92.0352 37.4825C97.0167 25.1505 98.4921 13.4438 99.2987 4.48198L-0.298714 -4.48198C-0.561414 -1.56314 -0.784769 -0.109205 -0.924147 0.606629C-1.0342 1.17183 -1.00717 0.82398 -0.685709 0.0281873C-0.342906 -0.820446 0.0236005 -1.4134 0.141201 -1.58464C0.183724 -1.64656 -0.237155 -1.02073 -1.64687 0.454327L70.6469 69.5457ZM300.623 3.5103C301.232 12.1569 302.82 22.3121 307.587 32.9835C312.228 43.3728 318.46 51.0036 323.251 56.3548L397.749 -10.3548C395.776 -12.5573 397.376 -11.1947 398.892 -7.80114C399.65 -6.10507 400.079 -4.60979 400.298 -3.59598C400.487 -2.71815 400.445 -2.53214 400.377 -3.5103L300.623 3.5103ZM327.195 60.2935C344.609 75.8448 363.222 81.7593 381.585 82.4633L385.415 -17.4633C385.387 -17.4644 385.898 -17.4469 386.769 -17.2861C387.676 -17.1185 388.785 -16.8303 389.979 -16.3703C392.573 -15.3713 393.885 -14.2219 393.805 -14.2935L327.195 60.2935ZM381.585 82.4633C403.323 83.2967 422.694 75.7619 439.355 61.6199L374.645 -14.6199C374.123 -14.1769 375.232 -15.233 377.906 -16.2147C380.776 -17.2684 383.527 -17.5357 385.415 -17.4633L381.585 82.4633ZM444.102 57.0179C450.087 50.3933 456.39 42.1913 460.905 31.6192C465.478 20.9119 466.757 11.144 467.334 4.0677L367.666 -4.0677C367.568 -2.87471 367.524 -2.96415 367.676 -3.70161C367.862 -4.60467 368.244 -6.02355 368.94 -7.65354C370.368 -10.9977 371.803 -12.1269 369.898 -10.0179L444.102 57.0179ZM475.621 3.48024C476.326 13.5746 477.949 25.4182 483.191 37.9173C488.44 50.4345 495.89 60.2344 503.453 68.5783L577.547 1.42168C575.86 -0.439753 575.159 -1.4017 574.95 -1.70725C574.813 -1.9062 575.083 -1.53529 575.411 -0.754685C576.139 0.981268 575.715 1.34085 575.379 -3.48024L475.621 3.48024ZM507.383 72.4601C514.712 78.9397 524.039 86.3166 536.368 91.6219C548.924 97.0253 561.062 98.7857 572.15 99.4187L577.85 -0.418712C575.485 -0.553737 574.508 -0.731564 574.354 -0.762326C574.345 -0.764072 574.981 -0.627754 575.896 -0.234102C577.755 0.56581 577.691 1.14141 573.617 -2.46011L507.383 72.4601ZM571.837 283.6C561.301 284.268 549.332 285.972 536.779 291.306C524.33 296.596 514.635 304.042 506.506 311.376L573.494 385.624C577.286 382.202 577.575 382.625 575.887 383.342C575.105 383.674 574.583 383.78 574.667 383.763C574.888 383.719 575.867 383.545 578.163 383.4L571.837 283.6ZM502.43 315.508C496.612 322.132 489.365 331.089 483.983 343.184C478.487 355.537 476.386 367.804 475.606 379.742L575.394 386.258C575.549 383.877 575.753 382.821 575.801 382.597C575.822 382.497 575.709 383.023 575.348 383.835C574.619 385.473 574.08 385.467 577.57 381.492L502.43 315.508ZM467.367 379.362C466.774 371.229 465.329 361.04 460.626 350.275C455.877 339.405 449.346 331.464 443.782 325.596L371.218 394.404C372.575 395.835 370.66 394.134 368.989 390.309C367.364 386.589 367.458 384.251 367.633 386.638L467.367 379.362ZM439.616 321.678C433.876 316.868 426.048 310.94 415.761 306.658C405 302.179 394.983 300.902 386.632 300.545L382.368 400.455C383.154 400.488 382.788 400.517 381.754 400.322C380.577 400.1 379.02 399.682 377.332 398.979C374.065 397.619 372.893 396.235 375.384 398.322L439.616 321.678ZM383.165 300.518C374.148 300.759 363.537 301.979 352.335 306.575C341.414 311.056 333.405 317.354 327.895 322.094L393.105 397.906C395.429 395.907 393.921 397.602 390.293 399.091C388.482 399.834 386.903 400.224 385.855 400.408C384.951 400.567 384.783 400.51 385.835 400.482L383.165 300.518ZM323.976 325.853C318.473 331.739 311.842 339.785 307.106 350.794C302.389 361.76 301.145 371.985 300.621 379.53L400.379 386.47C400.573 383.693 400.685 386.315 398.967 390.31C397.23 394.349 395.239 396.056 397.024 394.147L323.976 325.853ZM99.436 380.47C98.9098 370.084 97.3815 358.179 92.0955 345.557C86.9527 333.276 79.651 323.689 72.8096 315.783L-2.80959 381.217C1.02968 385.654 0.605913 385.972 -0.143073 384.184C-0.526553 383.268 -0.682129 382.57 -0.705802 382.444C-0.706433 382.441 -0.665393 382.657 -0.610564 383.166C-0.554907 383.682 -0.49104 384.443 -0.435969 385.53L99.436 380.47ZM68.2953 311.198C61.0988 304.775 51.8719 297.404 39.6838 291.97C27.1841 286.397 14.8596 284.295 2.96787 283.588L-2.96787 383.412C-0.831499 383.539 0.0684912 383.718 0.193988 383.745C0.204161 383.747 -0.307727 383.629 -1.03582 383.304C-2.49574 382.653 -2.21055 382.307 1.70467 385.802L68.2953 311.198Z" fill="#F2C080" mask="url(#path-1-inside-1_107_2)"/>
<path d="M127.863 225.953C127.863 234.675 125.667 242.102 121.274 248.234C116.881 254.23 110.575 258.864 102.356 262.134C94.2793 265.405 84.7142 267.04 73.6612 267.04C67.993 267.04 62.5374 266.768 57.2943 266.223C52.1929 265.678 47.5167 264.928 43.2655 263.974C39.0144 262.884 35.2592 261.589 32 260.09V242.511C37.1014 244.691 43.4072 246.667 50.9176 248.439C58.5697 250.21 66.4343 251.096 74.5115 251.096C82.0218 251.096 88.3277 250.142 93.429 248.234C98.5304 246.326 102.356 243.601 104.907 240.058C107.458 236.514 108.733 232.358 108.733 227.588C108.733 222.819 107.67 218.799 105.545 215.528C103.419 212.257 99.7349 209.259 94.4918 206.534C89.3905 203.672 82.2344 200.674 73.0235 197.539C66.5051 195.223 60.7661 192.77 55.8064 190.18C50.9884 187.455 46.9499 184.389 43.6906 180.982C40.4314 177.575 37.9516 173.691 36.2511 169.33C34.6924 164.969 33.913 159.927 33.913 154.203C33.913 146.436 35.9677 139.826 40.0772 134.375C44.1866 128.788 49.8548 124.495 57.0818 121.497C64.4504 118.499 72.8818 117 82.3761 117C90.7366 117 98.3887 117.75 105.332 119.249C112.276 120.748 118.582 122.724 124.25 125.177L118.298 140.917C113.055 138.736 107.316 136.896 101.081 135.397C94.9878 133.898 88.6111 133.149 81.951 133.149C75.5742 133.149 70.2603 134.035 66.0092 135.806C61.758 137.578 58.5697 140.099 56.4441 143.369C54.3185 146.504 53.2557 150.183 53.2557 154.408C53.2557 159.314 54.3185 163.402 56.4441 166.673C58.5697 169.943 62.0414 172.873 66.8594 175.463C71.6774 178.052 78.1958 180.846 86.4146 183.844C95.3421 186.978 102.852 190.385 108.946 194.064C115.181 197.608 119.857 201.9 122.974 206.942C126.234 211.985 127.863 218.322 127.863 225.953Z" fill="#27272F"/>
<path d="M363.502 117C383.341 117 397.794 120.853 406.864 128.558C415.933 136.263 420.467 147.12 420.467 161.13C420.467 167.294 419.404 173.248 417.279 178.991C415.295 184.595 411.965 189.639 407.289 194.122C402.612 198.605 396.377 202.177 388.584 204.839C380.79 207.36 371.225 208.621 359.888 208.621H342.459V267.04H323.329V117H363.502ZM361.801 133.181H342.459V192.44H357.763C367.399 192.44 375.405 191.46 381.782 189.499C388.159 187.397 392.906 184.105 396.023 179.622C399.141 175.139 400.699 169.255 400.699 161.97C400.699 152.304 397.582 145.089 391.347 140.326C385.112 135.562 375.263 133.181 361.801 133.181Z" fill="#27272F"/>
<path d="M486.035 117C505.873 117 520.327 120.853 529.396 128.558C538.465 136.263 543 147.12 543 161.13C543 167.294 541.937 173.248 539.812 178.991C537.828 184.595 534.498 189.639 529.821 194.122C525.145 198.605 518.91 202.177 511.116 204.839C503.323 207.36 493.758 208.621 482.421 208.621H464.991V267.04H445.861V117H486.035ZM484.334 133.181H464.991V192.44H480.296C489.932 192.44 497.938 191.46 504.315 189.499C510.691 187.397 515.438 184.105 518.556 179.622C521.673 175.139 523.232 169.255 523.232 161.97C523.232 152.304 520.115 145.089 513.88 140.326C507.645 135.562 497.796 133.181 484.334 133.181Z" fill="#27272F"/>
<rect x="265.813" y="140.756" width="17.5047" height="126.308" fill="#27272F"/>
<path d="M298.322 255.787L298.322 267.04L250.809 267.04L250.809 255.787L298.322 255.787Z" fill="#27272F"/>
<path d="M292.07 249.536L292.07 255.788L259.561 255.788L259.561 249.536L292.07 249.536Z" fill="#27272F"/>
<rect x="290.82" y="145.758" width="7.0189" height="32.5088" transform="rotate(90 290.82 145.758)" fill="#27272F"/>
<ellipse cx="274.565" cy="129.1" rx="12.5034" ry="12.1" fill="#27272F"/>
<rect x="153.283" y="117" width="18.7551" height="150.04" fill="#27272F"/>
<rect x="172.038" y="249.822" width="55.0148" height="17.2178" fill="#27272F"/>
</svg>
