<svg width="575" height="383" viewBox="0 0 575 383" fill="none" xmlns="http://www.w3.org/2000/svg">
<mask id="path-1-inside-1_109_74" fill="white">
<path d="M350.5 0H49.5C48.1486 15.0152 45.6508 23.3324 34.5 35C22.8877 45.667 15.2002 48.1156 0 49.5V333.5C15.9757 334.45 23.8883 338.582 35 348.5C45.6807 360.843 48.7559 368.311 49.5 383H350.5C351.218 372.678 353.212 367.795 360.5 360C368.334 353.261 373.503 350.794 384.5 350.5C394.187 350.913 399.27 353.103 407.5 360C414.421 367.299 416.733 372.48 417.5 383H525.5C526.582 366.426 530.693 359.099 540 348.5C551.922 337.744 559.967 334.453 575 333.5V49.5C559.282 48.6026 551.903 45.0811 540.5 35C529.595 22.9681 526.541 14.9155 525.5 0H417.5C416.736 9.35441 414.89 14.7664 407 23.5C398.807 30.4541 391.399 32.8028 383.5 32.5C375.601 32.1972 368.418 30.0707 360.5 23C353.736 15.4463 351.236 10.4635 350.5 0Z"/>
</mask>
<path d="M350.5 0H49.5C48.1486 15.0152 45.6508 23.3324 34.5 35C22.8877 45.667 15.2002 48.1156 0 49.5V333.5C15.9757 334.45 23.8883 338.582 35 348.5C45.6807 360.843 48.7559 368.311 49.5 383H350.5C351.218 372.678 353.212 367.795 360.5 360C368.334 353.261 373.503 350.794 384.5 350.5C394.187 350.913 399.27 353.103 407.5 360C414.421 367.299 416.733 372.48 417.5 383H525.5C526.582 366.426 530.693 359.099 540 348.5C551.922 337.744 559.967 334.453 575 333.5V49.5C559.282 48.6026 551.903 45.0811 540.5 35C529.595 22.9681 526.541 14.9155 525.5 0H417.5C416.736 9.35441 414.89 14.7664 407 23.5C398.807 30.4541 391.399 32.8028 383.5 32.5C375.601 32.1972 368.418 30.0707 360.5 23C353.736 15.4463 351.236 10.4635 350.5 0Z" fill="#F2C080"/>
<path d="M49.5 0V-50H3.79799L-0.298714 -4.48198L49.5 0ZM350.5 0L400.377 -3.5103L397.105 -50H350.5V0ZM417.5 0V-50H371.415L367.666 -4.0677L417.5 0ZM525.5 0L575.379 -3.48024L572.133 -50L525.5 -50V0ZM575 49.5H625V2.27316L577.85 -0.418712L575 49.5ZM575 333.5L578.163 383.4L625 380.431V333.5H575ZM525.5 383V433H572.341L575.394 386.258L525.5 383ZM417.5 383L367.633 386.638L371.014 433H417.5V383ZM350.5 383V433H397.142L400.379 386.47L350.5 383ZM49.5 383L-0.435969 385.53L1.96875 433H49.5V383ZM0 333.5H-50V380.615L-2.96787 383.412L0 333.5ZM0 49.5L-4.53528 -0.293888L-50 3.84708V49.5H0ZM34.5 35L68.3249 71.8223L69.5229 70.7217L70.6469 69.5457L34.5 35ZM360.5 23L323.251 56.3548L325.114 58.4343L327.195 60.2935L360.5 23ZM407 23.5L439.355 61.6199L441.881 59.4762L444.102 57.0179L407 23.5ZM540.5 35L503.453 68.5783L505.31 70.6279L507.383 72.4601L540.5 35ZM540 348.5L506.506 311.376L504.348 313.324L502.43 315.508L540 348.5ZM407.5 360L443.782 325.596L441.811 323.518L439.616 321.678L407.5 360ZM384.5 350.5L386.632 300.545L384.899 300.472L383.165 300.518L384.5 350.5ZM360.5 360L327.895 322.094L325.833 323.867L323.976 325.853L360.5 360ZM35 348.5L72.8096 315.782L70.7002 313.345L68.2953 311.198L35 348.5ZM49.5 50H350.5V-50H49.5V50ZM417.5 50H525.5V-50H417.5V50ZM525 49.5V333.5H625V49.5H525ZM525.5 333H417.5V433H525.5V333ZM350.5 333H49.5V433H350.5V333ZM50 333.5V49.5H-50V333.5H50ZM4.53528 99.2939C13.5462 98.4732 25.0946 97.004 37.2347 92.1269C49.9325 87.0256 59.8024 79.651 68.3249 71.8223L0.675134 -1.82226C-0.122658 -1.0894 -0.701553 -0.597702 -1.09498 -0.28018C-1.48314 0.033091 -1.65994 0.151796 -1.64961 0.144816C-1.52777 0.0624704 -0.932924 -0.307722 -0.0437496 -0.664942C0.795128 -1.00195 1.17991 -1.03795 0.628868 -0.930824C-0.0811524 -0.792796 -1.55374 -0.56545 -4.53528 -0.293888L4.53528 99.2939ZM70.6469 69.5457C79.1652 60.6326 86.8066 50.4264 92.0352 37.4825C97.0167 25.1505 98.4921 13.4438 99.2987 4.48198L-0.298714 -4.48198C-0.561414 -1.56314 -0.784769 -0.109205 -0.924147 0.606629C-1.0342 1.17183 -1.00717 0.82398 -0.685709 0.0281873C-0.342906 -0.820446 0.0236005 -1.4134 0.141201 -1.58464C0.183724 -1.64656 -0.237155 -1.02073 -1.64687 0.454327L70.6469 69.5457ZM300.623 3.5103C301.232 12.1569 302.82 22.3121 307.587 32.9835C312.228 43.3728 318.46 51.0035 323.251 56.3548L397.749 -10.3548C395.776 -12.5573 397.376 -11.1947 398.892 -7.80114C399.65 -6.10507 400.079 -4.60979 400.298 -3.59598C400.487 -2.71815 400.445 -2.53214 400.377 -3.5103L300.623 3.5103ZM327.195 60.2935C344.609 75.8448 363.222 81.7593 381.585 82.4633L385.415 -17.4633C385.387 -17.4644 385.898 -17.4469 386.769 -17.2861C387.676 -17.1185 388.785 -16.8303 389.979 -16.3703C392.573 -15.3713 393.885 -14.2219 393.805 -14.2935L327.195 60.2935ZM381.585 82.4633C403.323 83.2967 422.694 75.7619 439.355 61.6199L374.645 -14.6199C374.123 -14.1769 375.232 -15.233 377.906 -16.2147C380.776 -17.2684 383.527 -17.5357 385.415 -17.4633L381.585 82.4633ZM444.102 57.0179C450.087 50.3933 456.39 42.1913 460.905 31.6192C465.478 20.9119 466.757 11.144 467.334 4.0677L367.666 -4.0677C367.568 -2.87471 367.524 -2.96415 367.676 -3.70161C367.862 -4.60467 368.244 -6.02355 368.94 -7.65354C370.368 -10.9977 371.803 -12.1269 369.898 -10.0179L444.102 57.0179ZM475.621 3.48024C476.326 13.5746 477.949 25.4182 483.191 37.9173C488.44 50.4345 495.89 60.2344 503.453 68.5783L577.547 1.42168C575.86 -0.439753 575.159 -1.4017 574.95 -1.70725C574.813 -1.9062 575.083 -1.53529 575.411 -0.754685C576.139 0.981268 575.715 1.34085 575.379 -3.48024L475.621 3.48024ZM507.383 72.4601C514.712 78.9397 524.039 86.3166 536.368 91.6219C548.924 97.0253 561.062 98.7857 572.15 99.4187L577.85 -0.418712C575.485 -0.553737 574.508 -0.731564 574.354 -0.762326C574.345 -0.764072 574.981 -0.627754 575.896 -0.234102C577.755 0.56581 577.691 1.14141 573.617 -2.46011L507.383 72.4601ZM571.837 283.6C561.301 284.268 549.332 285.972 536.779 291.306C524.33 296.596 514.635 304.042 506.506 311.376L573.494 385.624C577.287 382.202 577.575 382.625 575.887 383.342C575.105 383.674 574.584 383.78 574.667 383.763C574.888 383.719 575.867 383.545 578.163 383.4L571.837 283.6ZM502.43 315.508C496.612 322.132 489.365 331.089 483.983 343.184C478.487 355.537 476.386 367.804 475.606 379.742L575.394 386.258C575.549 383.877 575.753 382.821 575.801 382.597C575.822 382.497 575.709 383.023 575.348 383.835C574.619 385.473 574.08 385.467 577.57 381.492L502.43 315.508ZM467.367 379.362C466.774 371.229 465.329 361.04 460.626 350.275C455.877 339.405 449.346 331.464 443.782 325.596L371.218 394.404C372.575 395.835 370.66 394.134 368.989 390.309C367.364 386.589 367.458 384.251 367.633 386.638L467.367 379.362ZM439.616 321.678C433.876 316.868 426.048 310.94 415.761 306.658C405 302.179 394.983 300.902 386.632 300.545L382.368 400.455C383.154 400.488 382.788 400.517 381.754 400.322C380.577 400.1 379.02 399.682 377.332 398.979C374.065 397.619 372.893 396.235 375.384 398.322L439.616 321.678ZM383.165 300.518C374.148 300.759 363.537 301.979 352.335 306.575C341.414 311.056 333.405 317.354 327.895 322.094L393.105 397.906C395.429 395.907 393.921 397.602 390.293 399.091C388.482 399.834 386.903 400.224 385.855 400.408C384.951 400.567 384.783 400.51 385.835 400.482L383.165 300.518ZM323.976 325.853C318.473 331.739 311.842 339.785 307.106 350.795C302.389 361.76 301.145 371.985 300.621 379.53L400.379 386.47C400.573 383.693 400.685 386.315 398.967 390.31C397.23 394.349 395.239 396.056 397.024 394.147L323.976 325.853ZM99.436 380.47C98.9098 370.084 97.3815 358.179 92.0955 345.557C86.9527 333.276 79.651 323.689 72.8096 315.782L-2.80959 381.218C1.02968 385.654 0.605913 385.972 -0.143073 384.184C-0.526553 383.268 -0.682129 382.57 -0.705802 382.444C-0.706433 382.441 -0.665393 382.657 -0.610564 383.166C-0.554907 383.682 -0.49104 384.443 -0.435969 385.53L99.436 380.47ZM68.2953 311.198C61.0988 304.775 51.8719 297.404 39.6838 291.97C27.1841 286.397 14.8596 284.295 2.96787 283.588L-2.96787 383.412C-0.831499 383.539 0.0684912 383.718 0.193988 383.745C0.204161 383.747 -0.307727 383.629 -1.03582 383.304C-2.49574 382.653 -2.21055 382.307 1.70467 385.802L68.2953 311.198Z" fill="#F2C080" mask="url(#path-1-inside-1_109_74)"/>
<path d="M352 0.503949C352 18.7293 366.775 33.5039 385 33.5039C403.225 33.5039 418 18.7293 418 0.503946L352 0.503949ZM418 76.0961C418 57.8707 403.225 43.0961 385 43.0961C366.775 43.0961 352 57.8707 352 76.0961L418 76.0961ZM352 77.1039C352 95.3293 366.775 110.104 385 110.104C403.225 110.104 418 95.3293 418 77.1039L352 77.1039ZM418 152.696C418 134.471 403.225 119.696 385 119.696C366.775 119.696 352 134.471 352 152.696L418 152.696ZM352 153.704C352 171.929 366.775 186.704 385 186.704C403.225 186.704 418 171.929 418 153.704L352 153.704ZM418 229.296C418 211.071 403.225 196.296 385 196.296C366.775 196.296 352 211.071 352 229.296L418 229.296ZM352 230.304C352 248.529 366.775 263.304 385 263.304C403.225 263.304 418 248.529 418 230.304L352 230.304ZM418 305.896C418 287.671 403.225 272.896 385 272.896C366.775 272.896 352 287.671 352 305.896L418 305.896ZM352 306.904C352 325.129 366.775 339.904 385 339.904C403.225 339.904 418 325.129 418 306.904L352 306.904ZM418 382.496C418 364.271 403.225 349.496 385 349.496C366.775 349.496 352 364.271 352 382.496L418 382.496ZM352 1.44248e-06L352 0.503949L418 0.503946L418 -1.44248e-06L352 1.44248e-06ZM352 76.0961L352 77.1039L418 77.1039L418 76.0961L352 76.0961ZM352 152.696L352 153.704L418 153.704L418 152.696L352 152.696ZM352 229.296L352 230.304L418 230.304L418 229.296L352 229.296ZM352 305.896L352 306.904L418 306.904L418 305.896L352 305.896ZM352 382.496L352 383L418 383L418 382.496L352 382.496Z" fill="#27272F"/>
<path d="M89.9046 211.538C89.9046 216.624 88.6237 220.956 86.062 224.532C83.5002 228.029 79.8228 230.731 75.0298 232.638C70.3194 234.545 64.7413 235.499 58.2956 235.499C54.9901 235.499 51.8085 235.34 48.7509 235.022C45.7759 234.704 43.0489 234.267 40.5697 233.711C38.0906 233.075 35.9007 232.32 34 231.446V221.194C36.975 222.466 40.6524 223.618 45.0322 224.651C49.4946 225.684 54.081 226.201 58.7914 226.201C63.1712 226.201 66.8486 225.645 69.8236 224.532C72.7986 223.419 75.0298 221.83 76.5173 219.764C78.0047 217.697 78.7485 215.273 78.7485 212.492C78.7485 209.71 78.1287 207.366 76.8891 205.459C75.6496 203.551 73.501 201.803 70.4434 200.213C67.4684 198.544 63.2952 196.796 57.9237 194.968C54.1224 193.617 50.7755 192.187 47.8832 190.677C45.0735 189.087 42.7183 187.299 40.8176 185.312C38.917 183.325 37.4708 181.061 36.4791 178.517C35.5701 175.974 35.1156 173.034 35.1156 169.696C35.1156 165.166 36.3139 161.312 38.7104 158.133C41.1069 154.874 44.4124 152.371 48.6269 150.623C52.9241 148.874 57.8411 148 63.3778 148C68.2535 148 72.7159 148.437 76.7652 149.311C80.8144 150.185 84.4918 151.338 87.7973 152.768L84.3266 161.947C81.269 160.676 77.9221 159.603 74.286 158.729C70.7326 157.855 67.0139 157.417 63.1299 157.417C59.4112 157.417 56.3123 157.934 53.8331 158.967C51.354 160 49.4946 161.471 48.2551 163.378C47.0155 165.206 46.3957 167.352 46.3957 169.815C46.3957 172.676 47.0155 175.06 48.2551 176.968C49.4946 178.875 51.5193 180.584 54.329 182.094C57.1386 183.604 60.94 185.233 65.733 186.981C70.9392 188.809 75.319 190.796 78.8724 192.942C82.5085 195.008 85.2356 197.511 87.0536 200.452C88.9543 203.392 89.9046 207.088 89.9046 211.538Z" fill="#27272F"/>
<path d="M227.322 148C238.891 148 247.32 150.247 252.609 154.74C257.898 159.234 260.542 165.565 260.542 173.735C260.542 177.33 259.923 180.802 258.683 184.152C257.526 187.42 255.584 190.361 252.857 192.975C250.13 195.589 246.494 197.673 241.949 199.225C237.404 200.696 231.826 201.431 225.215 201.431H215.05V235.499H203.894V148H227.322ZM226.33 157.436H215.05V191.995H223.975C229.594 191.995 234.264 191.423 237.982 190.279C241.701 189.053 244.469 187.134 246.287 184.519C248.105 181.905 249.014 178.474 249.014 174.225C249.014 168.588 247.196 164.381 243.56 161.603C239.924 158.825 234.181 157.436 226.33 157.436Z" fill="#27272F"/>
<path d="M298.779 148C310.349 148 318.778 150.247 324.067 154.74C329.356 159.234 332 165.565 332 173.735C332 177.33 331.38 180.802 330.141 184.152C328.984 187.42 327.042 190.361 324.315 192.975C321.588 195.589 317.951 197.673 313.406 199.225C308.861 200.696 303.283 201.431 296.672 201.431H286.508V235.499H275.352V148H298.779ZM297.788 157.436H286.508V191.995H295.433C301.052 191.995 305.721 191.423 309.44 190.279C313.158 189.053 315.927 187.134 317.745 184.519C319.563 181.905 320.472 178.474 320.472 174.225C320.472 168.588 318.654 164.381 315.018 161.603C311.382 158.825 305.638 157.436 297.788 157.436Z" fill="#27272F"/>
<rect x="170.353" y="161.854" width="10.2082" height="73.6592" fill="#27272F"/>
<path d="M189.311 228.937L189.311 235.499L161.603 235.499L161.603 228.937L189.311 228.937Z" fill="#27272F"/>
<path d="M185.665 225.291L185.665 228.937L166.707 228.937L166.707 225.291L185.665 225.291Z" fill="#27272F"/>
<rect x="184.936" y="164.771" width="4.09321" height="18.9581" transform="rotate(90 184.936 164.771)" fill="#27272F"/>
<ellipse cx="175.457" cy="155.056" rx="7.29159" ry="7.05638" fill="#27272F"/>
<rect x="104.729" y="148" width="10.9374" height="87.4991" fill="#27272F"/>
<rect x="115.666" y="225.458" width="32.083" height="10.0409" fill="#27272F"/>
<mask id="path-14-inside-2_109_74" fill="white">
<path d="M350.5 0H49.5C48.1486 15.0152 45.6508 23.3324 34.5 35C22.8877 45.667 15.2002 48.1156 0 49.5V333.5C15.9757 334.45 23.8883 338.582 35 348.5C45.6807 360.843 48.7559 368.311 49.5 383H350.5C351.218 372.678 353.212 367.795 360.5 360C368.334 353.261 373.503 350.794 384.5 350.5C394.187 350.913 399.27 353.103 407.5 360C414.421 367.299 416.733 372.48 417.5 383H525.5C526.582 366.426 530.693 359.099 540 348.5C551.922 337.744 559.967 334.453 575 333.5V49.5C559.282 48.6026 551.903 45.0811 540.5 35C529.595 22.9681 526.541 14.9155 525.5 0H417.5C416.736 9.35441 414.89 14.7664 407 23.5C398.807 30.4541 391.399 32.8028 383.5 32.5C375.601 32.1972 368.418 30.0707 360.5 23C353.736 15.4463 351.236 10.4635 350.5 0Z"/>
</mask>
<path d="M350.5 0H49.5C48.1486 15.0152 45.6508 23.3324 34.5 35C22.8877 45.667 15.2002 48.1156 0 49.5V333.5C15.9757 334.45 23.8883 338.582 35 348.5C45.6807 360.843 48.7559 368.311 49.5 383H350.5C351.218 372.678 353.212 367.795 360.5 360C368.334 353.261 373.503 350.794 384.5 350.5C394.187 350.913 399.27 353.103 407.5 360C414.421 367.299 416.733 372.48 417.5 383H525.5C526.582 366.426 530.693 359.099 540 348.5C551.922 337.744 559.967 334.453 575 333.5V49.5C559.282 48.6026 551.903 45.0811 540.5 35C529.595 22.9681 526.541 14.9155 525.5 0H417.5C416.736 9.35441 414.89 14.7664 407 23.5C398.807 30.4541 391.399 32.8028 383.5 32.5C375.601 32.1972 368.418 30.0707 360.5 23C353.736 15.4463 351.236 10.4635 350.5 0Z" fill="#F2C080"/>
<path d="M49.5 0V-50H3.79799L-0.298714 -4.48198L49.5 0ZM350.5 0L400.377 -3.5103L397.105 -50H350.5V0ZM417.5 0V-50H371.415L367.666 -4.0677L417.5 0ZM525.5 0L575.379 -3.48024L572.133 -50L525.5 -50V0ZM575 49.5H625V2.27316L577.85 -0.418712L575 49.5ZM575 333.5L578.163 383.4L625 380.431V333.5H575ZM525.5 383V433H572.341L575.394 386.258L525.5 383ZM417.5 383L367.633 386.638L371.014 433H417.5V383ZM350.5 383V433H397.142L400.379 386.47L350.5 383ZM49.5 383L-0.435969 385.53L1.96875 433H49.5V383ZM0 333.5H-50V380.615L-2.96787 383.412L0 333.5ZM0 49.5L-4.53528 -0.293888L-50 3.84708V49.5H0ZM34.5 35L68.3249 71.8223L69.5229 70.7217L70.6469 69.5457L34.5 35ZM360.5 23L323.251 56.3548L325.114 58.4343L327.195 60.2935L360.5 23ZM407 23.5L439.355 61.6199L441.881 59.4762L444.102 57.0179L407 23.5ZM540.5 35L503.453 68.5783L505.31 70.6279L507.383 72.4601L540.5 35ZM540 348.5L506.506 311.376L504.348 313.324L502.43 315.508L540 348.5ZM407.5 360L443.782 325.596L441.811 323.518L439.616 321.678L407.5 360ZM384.5 350.5L386.632 300.545L384.899 300.472L383.165 300.518L384.5 350.5ZM360.5 360L327.895 322.094L325.833 323.867L323.976 325.853L360.5 360ZM35 348.5L72.8096 315.782L70.7002 313.345L68.2953 311.198L35 348.5ZM49.5 50H350.5V-50H49.5V50ZM417.5 50H525.5V-50H417.5V50ZM525 49.5V333.5H625V49.5H525ZM525.5 333H417.5V433H525.5V333ZM350.5 333H49.5V433H350.5V333ZM50 333.5V49.5H-50V333.5H50ZM4.53528 99.2939C13.5462 98.4732 25.0946 97.004 37.2347 92.1269C49.9325 87.0256 59.8024 79.651 68.3249 71.8223L0.675134 -1.82226C-0.122658 -1.0894 -0.701553 -0.597702 -1.09498 -0.28018C-1.48314 0.033091 -1.65994 0.151796 -1.64961 0.144816C-1.52777 0.0624704 -0.932924 -0.307722 -0.0437496 -0.664942C0.795128 -1.00195 1.17991 -1.03795 0.628868 -0.930824C-0.0811524 -0.792796 -1.55374 -0.56545 -4.53528 -0.293888L4.53528 99.2939ZM70.6469 69.5457C79.1652 60.6326 86.8066 50.4264 92.0352 37.4825C97.0167 25.1505 98.4921 13.4438 99.2987 4.48198L-0.298714 -4.48198C-0.561414 -1.56314 -0.784769 -0.109205 -0.924147 0.606629C-1.0342 1.17183 -1.00717 0.82398 -0.685709 0.0281873C-0.342906 -0.820446 0.0236005 -1.4134 0.141201 -1.58464C0.183724 -1.64656 -0.237155 -1.02073 -1.64687 0.454327L70.6469 69.5457ZM300.623 3.5103C301.232 12.1569 302.82 22.3121 307.587 32.9835C312.228 43.3728 318.46 51.0035 323.251 56.3548L397.749 -10.3548C395.776 -12.5573 397.376 -11.1947 398.892 -7.80114C399.65 -6.10507 400.079 -4.60979 400.298 -3.59598C400.487 -2.71815 400.445 -2.53214 400.377 -3.5103L300.623 3.5103ZM327.195 60.2935C344.609 75.8448 363.222 81.7593 381.585 82.4633L385.415 -17.4633C385.387 -17.4644 385.898 -17.4469 386.769 -17.2861C387.676 -17.1185 388.785 -16.8303 389.979 -16.3703C392.573 -15.3713 393.885 -14.2219 393.805 -14.2935L327.195 60.2935ZM381.585 82.4633C403.323 83.2967 422.694 75.7619 439.355 61.6199L374.645 -14.6199C374.123 -14.1769 375.232 -15.233 377.906 -16.2147C380.776 -17.2684 383.527 -17.5357 385.415 -17.4633L381.585 82.4633ZM444.102 57.0179C450.087 50.3933 456.39 42.1913 460.905 31.6192C465.478 20.9119 466.757 11.144 467.334 4.0677L367.666 -4.0677C367.568 -2.87471 367.524 -2.96415 367.676 -3.70161C367.862 -4.60467 368.244 -6.02355 368.94 -7.65354C370.368 -10.9977 371.803 -12.1269 369.898 -10.0179L444.102 57.0179ZM475.621 3.48024C476.326 13.5746 477.949 25.4182 483.191 37.9173C488.44 50.4345 495.89 60.2344 503.453 68.5783L577.547 1.42168C575.86 -0.439753 575.159 -1.4017 574.95 -1.70725C574.813 -1.9062 575.083 -1.53529 575.411 -0.754685C576.139 0.981268 575.715 1.34085 575.379 -3.48024L475.621 3.48024ZM507.383 72.4601C514.712 78.9397 524.039 86.3166 536.368 91.6219C548.924 97.0253 561.062 98.7857 572.15 99.4187L577.85 -0.418712C575.485 -0.553737 574.508 -0.731564 574.354 -0.762326C574.345 -0.764072 574.981 -0.627754 575.896 -0.234102C577.755 0.56581 577.691 1.14141 573.617 -2.46011L507.383 72.4601ZM571.837 283.6C561.301 284.268 549.332 285.972 536.779 291.306C524.33 296.596 514.635 304.042 506.506 311.376L573.494 385.624C577.287 382.202 577.575 382.625 575.887 383.342C575.105 383.674 574.584 383.78 574.667 383.763C574.888 383.719 575.867 383.545 578.163 383.4L571.837 283.6ZM502.43 315.508C496.612 322.132 489.365 331.089 483.983 343.184C478.487 355.537 476.386 367.804 475.606 379.742L575.394 386.258C575.549 383.877 575.753 382.821 575.801 382.597C575.822 382.497 575.709 383.023 575.348 383.835C574.619 385.473 574.08 385.467 577.57 381.492L502.43 315.508ZM467.367 379.362C466.774 371.229 465.329 361.04 460.626 350.275C455.877 339.405 449.346 331.464 443.782 325.596L371.218 394.404C372.575 395.835 370.66 394.134 368.989 390.309C367.364 386.589 367.458 384.251 367.633 386.638L467.367 379.362ZM439.616 321.678C433.876 316.868 426.048 310.94 415.761 306.658C405 302.179 394.983 300.902 386.632 300.545L382.368 400.455C383.154 400.488 382.788 400.517 381.754 400.322C380.577 400.1 379.02 399.682 377.332 398.979C374.065 397.619 372.893 396.235 375.384 398.322L439.616 321.678ZM383.165 300.518C374.148 300.759 363.537 301.979 352.335 306.575C341.414 311.056 333.405 317.354 327.895 322.094L393.105 397.906C395.429 395.907 393.921 397.602 390.293 399.091C388.482 399.834 386.903 400.224 385.855 400.408C384.951 400.567 384.783 400.51 385.835 400.482L383.165 300.518ZM323.976 325.853C318.473 331.739 311.842 339.785 307.106 350.795C302.389 361.76 301.145 371.985 300.621 379.53L400.379 386.47C400.573 383.693 400.685 386.315 398.967 390.31C397.23 394.349 395.239 396.056 397.024 394.147L323.976 325.853ZM99.436 380.47C98.9098 370.084 97.3815 358.179 92.0955 345.557C86.9527 333.276 79.651 323.689 72.8096 315.782L-2.80959 381.218C1.02968 385.654 0.605913 385.972 -0.143073 384.184C-0.526553 383.268 -0.682129 382.57 -0.705802 382.444C-0.706433 382.441 -0.665393 382.657 -0.610564 383.166C-0.554907 383.682 -0.49104 384.443 -0.435969 385.53L99.436 380.47ZM68.2953 311.198C61.0988 304.775 51.8719 297.404 39.6838 291.97C27.1841 286.397 14.8596 284.295 2.96787 283.588L-2.96787 383.412C-0.831499 383.539 0.0684912 383.718 0.193988 383.745C0.204161 383.747 -0.307727 383.629 -1.03582 383.304C-2.49574 382.653 -2.21055 382.307 1.70467 385.802L68.2953 311.198Z" fill="#F2C080" mask="url(#path-14-inside-2_109_74)"/>
<path d="M352 0.503949C352 18.7293 366.775 33.5039 385 33.5039C403.225 33.5039 418 18.7293 418 0.503946L352 0.503949ZM418 76.0961C418 57.8707 403.225 43.0961 385 43.0961C366.775 43.0961 352 57.8707 352 76.0961L418 76.0961ZM352 77.1039C352 95.3293 366.775 110.104 385 110.104C403.225 110.104 418 95.3293 418 77.1039L352 77.1039ZM418 152.696C418 134.471 403.225 119.696 385 119.696C366.775 119.696 352 134.471 352 152.696L418 152.696ZM352 153.704C352 171.929 366.775 186.704 385 186.704C403.225 186.704 418 171.929 418 153.704L352 153.704ZM418 229.296C418 211.071 403.225 196.296 385 196.296C366.775 196.296 352 211.071 352 229.296L418 229.296ZM352 230.304C352 248.529 366.775 263.304 385 263.304C403.225 263.304 418 248.529 418 230.304L352 230.304ZM418 305.896C418 287.671 403.225 272.896 385 272.896C366.775 272.896 352 287.671 352 305.896L418 305.896ZM352 306.904C352 325.129 366.775 339.904 385 339.904C403.225 339.904 418 325.129 418 306.904L352 306.904ZM418 382.496C418 364.271 403.225 349.496 385 349.496C366.775 349.496 352 364.271 352 382.496L418 382.496ZM352 1.44248e-06L352 0.503949L418 0.503946L418 -1.44248e-06L352 1.44248e-06ZM352 76.0961L352 77.1039L418 77.1039L418 76.0961L352 76.0961ZM352 152.696L352 153.704L418 153.704L418 152.696L352 152.696ZM352 229.296L352 230.304L418 230.304L418 229.296L352 229.296ZM352 305.896L352 306.904L418 306.904L418 305.896L352 305.896ZM352 382.496L352 383L418 383L418 382.496L352 382.496Z" fill="#27272F"/>
<path d="M275 248.847C275 263.404 271.334 275.8 264.002 286.036C256.67 296.043 246.146 303.777 232.428 309.236C218.947 314.694 202.982 317.424 184.534 317.424C175.074 317.424 165.968 316.969 157.217 316.059C148.703 315.149 140.898 313.898 133.803 312.306C126.707 310.487 120.44 308.326 115 305.824V276.483C123.514 280.122 134.039 283.42 146.574 286.377C159.346 289.334 172.472 290.812 185.953 290.812C198.489 290.812 209.013 289.22 217.528 286.036C226.042 282.851 232.428 278.302 236.685 272.389C240.942 266.475 243.071 259.538 243.071 251.577C243.071 243.616 241.297 236.906 237.749 231.447C234.202 225.988 228.052 220.985 219.302 216.436C210.787 211.659 198.843 206.655 183.47 201.424C172.591 197.557 163.012 193.463 154.734 189.141C146.693 184.592 139.952 179.475 134.512 173.788C129.072 168.102 124.933 161.62 122.095 154.341C119.494 147.063 118.193 138.647 118.193 129.094C118.193 116.129 121.622 105.098 128.481 96C135.34 86.6745 144.8 79.5098 156.863 74.5059C169.161 69.502 183.234 67 199.08 67C213.034 67 225.806 68.251 237.395 70.7529C248.984 73.2549 259.508 76.553 268.969 80.6471L259.035 106.918C250.285 103.278 240.706 100.208 230.299 97.7059C220.129 95.204 209.486 93.953 198.37 93.953C187.727 93.953 178.858 95.4314 171.763 98.3883C164.667 101.345 159.346 105.553 155.798 111.012C152.251 116.243 150.477 122.384 150.477 129.435C150.477 137.624 152.251 144.447 155.798 149.906C159.346 155.365 165.14 160.255 173.182 164.577C181.223 168.898 192.103 173.561 205.82 178.565C220.721 183.796 233.256 189.483 243.426 195.624C253.832 201.537 261.637 208.702 266.84 217.118C272.28 225.534 275 236.11 275 248.847Z" fill="#27272F"/>
</svg>
