<svg width="351" height="184" viewBox="0 0 351 184" fill="none" xmlns="http://www.w3.org/2000/svg">
<path d="M336.734 1L337.214 1.13987L337.4 0.5H336.734V1ZM16.307 1V0.5H15.807V1H16.307ZM1 19.8101L0.902285 19.3197L0.5 19.3999V19.8101H1ZM1 170.799H0.5V171.299H1V170.799ZM21.9196 183L21.4653 183.209L21.5992 183.5H21.9196V183ZM332.142 183V183.5H332.642V183H332.142ZM350 167.24V167.74H350.5V167.24H350ZM350 16.7598H350.5V16.2598H350V16.7598ZM233.667 1V0.5H233.386L233.24 0.739821L233.667 1ZM214.788 1L215.194 0.708682L215.045 0.5H214.788V1ZM214.788 183V183.5H215.06L215.208 183.272L214.788 183ZM233.667 183L233.229 183.241L233.371 183.5H233.667V183ZM215.278 1.68367L214.872 1.97499L214.872 1.97499L215.278 1.68367ZM215.213 182.344L214.793 182.072L214.793 182.072L215.213 182.344ZM20.6724 180.289L21.1267 180.08L21.1267 180.08L20.6724 180.289ZM224.493 6.25687V7.78047H225.493V6.25687H224.493ZM224.493 10.8277V13.8748H225.493V10.8277H224.493ZM224.493 16.922V19.9692H225.493V16.922H224.493ZM224.493 23.0164V26.0636H225.493V23.0164H224.493ZM224.493 29.1108V32.158H225.493V29.1108H224.493ZM224.493 35.2052V38.2524H225.493V35.2052H224.493ZM224.493 41.2995V44.3467H225.493V41.2995H224.493ZM224.493 47.3939V50.4411H225.493V47.3939H224.493ZM224.493 53.4883V56.5355H225.493V53.4883H224.493ZM224.493 59.5827V62.6299H225.493V59.5827H224.493ZM224.493 65.677V68.7242H225.493V65.677H224.493ZM224.493 71.7714V74.8186H225.493V71.7714H224.493ZM224.493 77.8658V80.913H225.493V77.8658H224.493ZM224.493 83.9602V87.0074H225.493V83.9602H224.493ZM224.493 90.0546V93.1017H225.493V90.0546H224.493ZM224.493 96.1489V99.1961H225.493V96.1489H224.493ZM224.493 102.243V105.29H225.493V102.243H224.493ZM224.493 108.338V111.385H225.493V108.338H224.493ZM224.493 114.432V117.479H225.493V114.432H224.493ZM224.493 120.526V123.574H225.493V120.526H224.493ZM224.493 126.621V129.668H225.493V126.621H224.493ZM224.493 132.715V135.762H225.493V132.715H224.493ZM224.493 138.81V141.857H225.493V138.81H224.493ZM224.493 144.904V147.951H225.493V144.904H224.493ZM224.493 150.998V154.046H225.493V150.998H224.493ZM224.493 157.093V160.14H225.493V157.093H224.493ZM224.493 163.187V166.234H225.493V163.187H224.493ZM224.493 169.282V172.329H225.493V169.282H224.493ZM224.493 175.376V176.899H225.493V175.376H224.493ZM336.734 0.5H335.218V1.5H336.734V0.5ZM332.187 0.5H329.155V1.5H332.187V0.5ZM326.124 0.5H323.093V1.5H326.124V0.5ZM320.061 0.5H317.03V1.5H320.061V0.5ZM313.998 0.5H310.967V1.5H313.998V0.5ZM307.936 0.5H304.904V1.5H307.936V0.5ZM301.873 0.5H298.842V1.5H301.873V0.5ZM295.81 0.5H292.779V1.5H295.81V0.5ZM289.747 0.5H286.716V1.5H289.747V0.5ZM283.685 0.5H280.653V1.5H283.685V0.5ZM277.622 0.5H274.59V1.5H277.622V0.5ZM271.559 0.5H268.528V1.5H271.559V0.5ZM265.496 0.5H262.465V1.5H265.496V0.5ZM259.433 0.5H256.402V1.5H259.433V0.5ZM253.371 0.5H250.339V1.5H253.371V0.5ZM247.308 0.5H244.277V1.5H247.308V0.5ZM241.245 0.5H238.214V1.5H241.245V0.5ZM235.182 0.5H233.667V1.5H235.182V0.5ZM233.24 0.739821C233.01 1.11699 232.762 1.47293 232.498 1.80764L233.283 2.4267C233.572 2.06041 233.843 1.67151 234.094 1.26018L233.24 0.739821ZM230.656 3.62678C229.96 4.16005 229.208 4.59515 228.42 4.93123L228.813 5.85097C229.676 5.48276 230.5 5.00572 231.264 4.42059L230.656 3.62678ZM225.93 5.64818C225.074 5.78478 224.203 5.81709 223.339 5.74428L223.255 6.74075C224.2 6.82035 225.152 6.78503 226.088 6.63569L225.93 5.64818ZM220.803 5.21387C219.992 4.93713 219.21 4.55905 218.476 4.07896L217.929 4.91579C218.734 5.44252 219.592 5.85701 220.479 6.16019L220.803 5.21387ZM216.504 2.40193C216.216 2.08779 215.942 1.75133 215.685 1.39235L214.872 1.97499C215.152 2.36645 215.451 2.73406 215.767 3.0778L216.504 2.40193ZM215.685 1.39235L215.562 1.22144L214.749 1.80407L214.872 1.97499L215.685 1.39235ZM215.317 0.8796L215.194 0.708682L214.382 1.29132L214.504 1.46224L215.317 0.8796ZM214.788 0.5H213.284V1.5H214.788V0.5ZM210.277 0.5H207.27V1.5H210.277V0.5ZM204.263 0.5H201.255V1.5H204.263V0.5ZM198.248 0.5H195.241V1.5H198.248V0.5ZM192.233 0.5H189.226V1.5H192.233V0.5ZM186.219 0.5H183.211V1.5H186.219V0.5ZM180.204 0.5H177.197V1.5H180.204V0.5ZM174.19 0.5H171.182V1.5H174.19V0.5ZM168.175 0.5H165.168V1.5H168.175V0.5ZM162.16 0.5H159.153V1.5H162.16V0.5ZM156.146 0.5H153.139V1.5H156.146V0.5ZM150.131 0.5H147.124V1.5H150.131V0.5ZM144.117 0.5H141.109V1.5H144.117V0.5ZM138.102 0.5H135.095V1.5H138.102V0.5ZM132.088 0.5H129.08V1.5H132.088V0.5ZM126.073 0.5H123.066V1.5H126.073V0.5ZM120.058 0.5H117.051V1.5H120.058V0.5ZM114.044 0.5H111.037V1.5H114.044V0.5ZM108.029 0.5H105.022V1.5H108.029V0.5ZM102.015 0.5H99.0075V1.5H102.015V0.5ZM96.0002 0.5H92.9929V1.5H96.0002V0.5ZM89.9856 0.5H86.9783V1.5H89.9856V0.5ZM83.9711 0.5H80.9638V1.5H83.9711V0.5ZM77.9565 0.5H74.9492V1.5H77.9565V0.5ZM71.9419 0.5H68.9346V1.5H71.9419V0.5ZM65.9273 0.5H62.92V1.5H65.9273V0.5ZM59.9127 0.5H56.9054V1.5H59.9127V0.5ZM53.8981 0.5H50.8908V1.5H53.8981V0.5ZM47.8835 0.5H44.8762V1.5H47.8835V0.5ZM41.8689 0.5H38.8616V1.5H41.8689V0.5ZM35.8543 0.5H32.8471V1.5H35.8543V0.5ZM29.8398 0.5H26.8325V1.5H29.8398V0.5ZM23.8252 0.5H20.8179V1.5H23.8252V0.5ZM17.8106 0.5H16.307V1.5H17.8106V0.5ZM15.807 1V1.05159H16.807V1H15.807ZM15.807 1.15476V1.20634H16.807V1.15476H15.807ZM15.807 1.20634C15.807 1.74012 15.7841 2.26932 15.7391 2.79292L16.7355 2.8785C16.7829 2.32651 16.807 1.76875 16.807 1.20634H15.807ZM15.1961 5.91802C14.9234 6.94879 14.5631 7.94677 14.1228 8.90275L15.0311 9.32107C15.4953 8.31315 15.8752 7.26081 16.1628 6.17378L15.1961 5.91802ZM12.553 11.6595C11.9519 12.5315 11.2767 13.3509 10.5353 14.1082L11.2499 14.8077C12.0312 14.0096 12.7428 13.1461 13.3763 12.2271L12.553 11.6595ZM8.13007 16.1772C7.27664 16.7925 6.36647 17.3381 5.40708 17.805L5.84463 18.7042C6.85595 18.212 7.81536 17.6369 8.7149 16.9883L8.13007 16.1772ZM2.44563 18.9436C1.94067 19.0896 1.42595 19.2153 0.902285 19.3197L1.09772 20.3004C1.64917 20.1905 2.19137 20.0581 2.72343 19.9043L2.44563 18.9436ZM0.5 19.8101V21.3199H1.5V19.8101H0.5ZM0.5 24.3397V27.3595H1.5V24.3397H0.5ZM0.5 30.3793V33.399H1.5V30.3793H0.5ZM0.5 36.4188V39.4386H1.5V36.4188H0.5ZM0.5 42.4584V45.4782H1.5V42.4584H0.5ZM0.5 48.4979V51.5177H1.5V48.4979H0.5ZM0.5 54.5375V57.5573H1.5V54.5375H0.5ZM0.5 60.577V63.5968H1.5V60.577H0.5ZM0.5 66.6166V69.6364H1.5V66.6166H0.5ZM0.5 72.6561V75.6759H1.5V72.6561H0.5ZM0.5 78.6957V81.7155H1.5V78.6957H0.5ZM0.5 84.7352V87.755H1.5V84.7352H0.5ZM0.5 90.7748V93.7946H1.5V90.7748H0.5ZM0.5 96.8143V99.8341H1.5V96.8143H0.5ZM0.5 102.854V105.874H1.5V102.854H0.5ZM0.5 108.893V111.913H1.5V108.893H0.5ZM0.5 114.933V117.953H1.5V114.933H0.5ZM0.5 120.973V123.992H1.5V120.973H0.5ZM0.5 127.012V130.032H1.5V127.012H0.5ZM0.5 133.052V136.071H1.5V133.052H0.5ZM0.5 139.091V142.111H1.5V139.091H0.5ZM0.5 145.131V148.151H1.5V145.131H0.5ZM0.5 151.17V154.19H1.5V151.17H0.5ZM0.5 157.21V160.23H1.5V157.21H0.5ZM0.5 163.249V166.269H1.5V163.249H0.5ZM0.5 169.289V170.799H1.5V169.289H0.5ZM1 171.299H2.20742V170.299H1V171.299ZM4.62227 171.299H5.8297V170.299H4.62227V171.299ZM5.8297 171.299C6.3345 171.299 6.83546 171.323 7.33126 171.37L7.42552 170.374C6.89849 170.324 6.36607 170.299 5.8297 170.299V171.299ZM10.2795 171.934C11.2463 172.216 12.1799 172.589 13.0686 173.045L13.5247 172.155C12.5801 171.67 11.5876 171.274 10.5597 170.974L10.2795 171.934ZM15.5985 174.66C16.3859 175.276 17.1162 175.966 17.7778 176.725L18.5314 176.067C17.8278 175.261 17.0512 174.526 16.2142 173.872L15.5985 174.66ZM19.526 179.164C19.7761 179.594 20.0073 180.039 20.2182 180.498L21.1267 180.08C20.9025 179.593 20.6567 179.119 20.3906 178.662L19.526 179.164ZM20.2182 180.498L20.53 181.176L21.4385 180.758L21.1267 180.08L20.2182 180.498ZM21.1536 182.531L21.4653 183.209L22.3738 182.791L22.062 182.113L21.1536 182.531ZM21.9196 183.5H23.4264V182.5H21.9196V183.5ZM26.4399 183.5H29.4535V182.5H26.4399V183.5ZM32.4671 183.5H35.4807V182.5H32.4671V183.5ZM38.4942 183.5H41.5078V182.5H38.4942V183.5ZM44.5214 183.5H47.5349V182.5H44.5214V183.5ZM50.5485 183.5H53.5621V182.5H50.5485V183.5ZM56.5756 183.5H59.5892V182.5H56.5756V183.5ZM62.6028 183.5H65.6163V182.5H62.6028V183.5ZM68.6299 183.5H71.6435V182.5H68.6299V183.5ZM74.657 183.5H77.6706V182.5H74.657V183.5ZM80.6842 183.5H83.6978V182.5H80.6842V183.5ZM86.7113 183.5H89.7249V182.5H86.7113V183.5ZM92.7385 183.5H95.752V182.5H92.7385V183.5ZM98.7656 183.5H101.779V182.5H98.7656V183.5ZM104.793 183.5H107.806V182.5H104.793V183.5ZM110.82 183.5H113.833V182.5H110.82V183.5ZM116.847 183.5H119.861V182.5H116.847V183.5ZM122.874 183.5H125.888V182.5H122.874V183.5ZM128.901 183.5H131.915V182.5H128.901V183.5ZM134.928 183.5H137.942V182.5H134.928V183.5ZM140.956 183.5H143.969V182.5H140.956V183.5ZM146.983 183.5H149.996V182.5H146.983V183.5ZM153.01 183.5H156.023V182.5H153.01V183.5ZM159.037 183.5H162.051V182.5H159.037V183.5ZM165.064 183.5H168.078V182.5H165.064V183.5ZM171.091 183.5H174.105V182.5H171.091V183.5ZM177.118 183.5H180.132V182.5H177.118V183.5ZM183.146 183.5H186.159V182.5H183.146V183.5ZM189.173 183.5H192.186V182.5H189.173V183.5ZM195.2 183.5H198.213V182.5H195.2V183.5ZM201.227 183.5H204.241V182.5H201.227V183.5ZM207.254 183.5H210.268V182.5H207.254V183.5ZM213.281 183.5H214.788V182.5H213.281V183.5ZM215.208 183.272L215.314 183.108L214.475 182.564L214.368 182.728L215.208 183.272ZM215.526 182.78L215.633 182.615L214.793 182.072L214.687 182.236L215.526 182.78ZM215.633 182.615C215.878 182.237 216.141 181.881 216.421 181.55L215.656 180.906C215.349 181.27 215.061 181.658 214.793 182.072L215.633 182.615ZM218.366 179.769C219.1 179.257 219.887 178.853 220.707 178.556L220.367 177.616C219.467 177.941 218.6 178.386 217.794 178.949L218.366 179.769ZM223.285 177.984C224.165 177.904 225.054 177.935 225.926 178.078L226.087 177.091C225.131 176.935 224.158 176.9 223.194 176.988L223.285 177.984ZM228.456 178.831C229.253 179.185 230.01 179.644 230.705 180.207L231.335 179.43C230.57 178.811 229.737 178.306 228.862 177.917L228.456 178.831ZM232.519 182.122C232.774 182.473 233.011 182.846 233.229 183.241L234.105 182.759C233.867 182.327 233.607 181.919 233.328 181.534L232.519 182.122ZM233.667 183.5H235.205V182.5H233.667V183.5ZM238.283 183.5H241.36V182.5H238.283V183.5ZM244.437 183.5H247.515V182.5H244.437V183.5ZM250.592 183.5H253.669V182.5H250.592V183.5ZM256.747 183.5H259.824V182.5H256.747V183.5ZM262.901 183.5H265.979V182.5H262.901V183.5ZM269.056 183.5H272.134V182.5H269.056V183.5ZM275.211 183.5H278.288V182.5H275.211V183.5ZM281.366 183.5H284.443V182.5H281.366V183.5ZM287.52 183.5H290.598V182.5H287.52V183.5ZM293.675 183.5H296.752V182.5H293.675V183.5ZM299.83 183.5H302.907V182.5H299.83V183.5ZM305.984 183.5H309.062V182.5H305.984V183.5ZM312.139 183.5H315.216V182.5H312.139V183.5ZM318.294 183.5H321.371V182.5H318.294V183.5ZM324.448 183.5H327.526V182.5H324.448V183.5ZM330.603 183.5H332.142V182.5H330.603V183.5ZM332.642 183C332.642 182.494 332.667 181.994 332.715 181.501L331.72 181.403C331.668 181.929 331.642 182.461 331.642 183H332.642ZM333.3 178.562C333.594 177.596 333.982 176.671 334.453 175.796L333.572 175.322C333.07 176.254 332.657 177.24 332.343 178.27L333.3 178.562ZM336.126 173.31C336.764 172.538 337.476 171.829 338.252 171.195L337.619 170.421C336.793 171.096 336.034 171.851 335.355 172.673L336.126 173.31ZM340.747 169.534C341.623 169.067 342.55 168.683 343.518 168.391L343.229 167.434C342.198 167.745 341.211 168.154 340.277 168.651L340.747 169.534ZM346.459 167.812C346.952 167.765 347.453 167.74 347.959 167.74V166.74C347.421 166.74 346.888 166.766 346.363 166.817L346.459 167.812ZM347.959 167.74H348.469V166.74H347.959V167.74ZM349.49 167.74H350V166.74H349.49V167.74ZM350.5 167.24V165.735H349.5V167.24H350.5ZM350.5 162.726V159.716H349.5V162.726H350.5ZM350.5 156.707V153.697H349.5V156.707H350.5ZM350.5 150.687V147.678H349.5V150.687H350.5ZM350.5 144.668V141.659H349.5V144.668H350.5ZM350.5 138.649V135.639H349.5V138.649H350.5ZM350.5 132.63V129.62H349.5V132.63H350.5ZM350.5 126.61V123.601H349.5V126.61H350.5ZM350.5 120.591V117.582H349.5V120.591H350.5ZM350.5 114.572V111.562H349.5V114.572H350.5ZM350.5 108.553V105.543H349.5V108.553H350.5ZM350.5 102.534V99.524H349.5V102.534H350.5ZM350.5 96.5144V93.5048H349.5V96.5144H350.5ZM350.5 90.4952V87.4856H349.5V90.4952H350.5ZM350.5 84.476V81.4664H349.5V84.476H350.5ZM350.5 78.4568V75.4472H349.5V78.4568H350.5ZM350.5 72.4376V69.428H349.5V72.4376H350.5ZM350.5 66.4184V63.4087H349.5V66.4184H350.5ZM350.5 60.3991V57.3895H349.5V60.3991H350.5ZM350.5 54.3799V51.3703H349.5V54.3799H350.5ZM350.5 48.3607V45.3511H349.5V48.3607H350.5ZM350.5 42.3415V39.3319H349.5V42.3415H350.5ZM350.5 36.3223V33.3127H349.5V36.3223H350.5ZM350.5 30.3031V27.2935H349.5V30.3031H350.5ZM350.5 24.2838V21.2742H349.5V24.2838H350.5ZM350.5 18.2646V16.7598H349.5V18.2646H350.5ZM350 16.2598H349.653V17.2598H350V16.2598ZM348.959 16.2598H348.612V17.2598H348.959V16.2598ZM348.612 16.2598C348.147 16.2598 347.689 16.2336 347.24 16.1829L347.128 17.1766C347.614 17.2315 348.109 17.2598 348.612 17.2598V16.2598ZM344.573 15.5634C343.701 15.2502 342.881 14.8387 342.123 14.3438L341.576 15.1811C342.398 15.7179 343.289 16.1646 344.235 16.5046L344.573 15.5634ZM340.018 12.5917C339.385 11.9285 338.831 11.1944 338.366 10.4056L337.504 10.913C338.008 11.7679 338.609 12.5632 339.294 13.2818L340.018 12.5917ZM337.258 7.90148C336.99 7.03656 336.82 6.13466 336.76 5.21096L335.762 5.27578C335.827 6.27928 336.012 7.25871 336.303 8.19743L337.258 7.90148ZM336.905 2.47788C336.981 2.03324 337.084 1.58672 337.214 1.13987L336.254 0.860126C336.113 1.34335 336.002 1.82685 335.919 2.30893L336.905 2.47788Z" fill="black"/>
</svg>
