<svg width="40" height="40" viewBox="0 0 40 40" fill="none" xmlns="http://www.w3.org/2000/svg">
<path d="M30.675 29.2949L30.6582 10.6283C30.6569 9.16162 29.4558 7.96594 27.9892 7.97121L20.9892 7.9964L21.0084 29.3297L19.0084 29.3369L18.9892 8.0036L11.9893 8.02879C10.5226 8.03407 9.32369 9.23839 9.32501 10.7051L9.3418 29.3717C8.60847 29.3744 8.00901 29.9765 8.00967 30.7098C8.01033 31.4432 8.61087 32.041 9.3442 32.0384L30.6774 31.9616C31.4107 31.959 32.0102 31.3568 32.0095 30.6235C32.0089 29.8901 31.4083 29.2923 30.675 29.2949ZM16.0012 21.3477C15.2679 21.3504 14.6674 20.7525 14.6667 20.0192C14.666 19.2859 15.2655 18.6837 15.9988 18.6811C16.7322 18.6784 17.3327 19.2763 17.3334 20.0096C17.334 20.7429 16.7346 21.3451 16.0012 21.3477ZM24.0012 21.3189C23.2678 21.3216 22.6673 20.7237 22.6667 19.9904C22.666 19.2571 23.2654 18.6549 23.9988 18.6523C24.7321 18.6496 25.3326 19.2475 25.3333 19.9808C25.334 20.7141 24.7345 21.3163 24.0012 21.3189Z" fill="#F2C080"/>
</svg>
