<svg width="40" height="40" viewBox="0 0 40 40" fill="none" xmlns="http://www.w3.org/2000/svg">
<path d="M30.175 29.2967L30.1754 29.7967L30.6754 29.7949C31.1326 29.7933 31.5091 30.1681 31.5095 30.6253C31.5099 31.0825 31.1341 31.46 30.6769 31.4616L9.34375 31.5384C8.88656 31.54 8.51008 31.1652 8.50967 30.708C8.50926 30.2509 8.88506 29.8734 9.34225 29.8717L9.84225 29.8699L9.8418 29.3699L9.82501 10.7033C9.82394 9.51273 10.7992 8.53308 11.9897 8.52879L18.4897 8.5054L18.5084 29.3387L18.5089 29.8387L19.0089 29.8369L21.0088 29.8297L21.5088 29.8279L21.5084 29.3279L21.4897 8.49461L27.9896 8.47121C29.1801 8.46693 30.1571 9.43956 30.1582 10.6301L30.175 29.2967ZM14.1667 20.021C14.1676 21.0305 14.9922 21.8514 16.0017 21.8477C17.0111 21.8441 17.8343 21.0173 17.8334 20.0078C17.8324 18.9983 17.0078 18.1774 15.9984 18.1811C14.9889 18.1847 14.1658 19.0115 14.1667 20.021ZM22.1667 19.9922C22.1676 21.0017 22.9922 21.8226 24.0016 21.8189C25.0111 21.8153 25.8342 20.9885 25.8333 19.979C25.8324 18.9695 25.0078 18.1486 23.9983 18.1523C22.9889 18.1559 22.1657 18.9827 22.1667 19.9922Z" stroke="#F2C080"/>
</svg>
