<svg width="40" height="40" viewBox="0 0 40 40" fill="none" xmlns="http://www.w3.org/2000/svg">
<path d="M30 31.9999H29.9998L23.999 31.9991C23.4688 31.9985 22.9605 31.7931 22.5856 31.4281C22.2108 31.0631 21.9999 30.5682 21.9993 30.0521V24.2107H17.9993V30.0519C17.9986 30.5681 17.7877 31.063 17.4129 31.428C17.038 31.793 16.5297 31.9984 15.9995 31.999L10.0002 32C9.73759 32 9.47749 31.9497 9.23481 31.8519C8.99213 31.754 8.77162 31.6106 8.58588 31.4298C8.40013 31.249 8.25279 31.0343 8.15227 30.7981C8.05174 30.5618 8 30.3086 8 30.0529V18.8012C8.00022 18.5299 8.05855 18.2617 8.17126 18.0136C8.28398 17.7655 8.44861 17.543 8.65462 17.3604L18.6538 8.50927C19.021 8.18174 19.501 8.00005 19.9991 8C20.4972 7.99995 20.9773 8.18157 21.3446 8.50903L31.3455 17.3605C31.5515 17.5432 31.716 17.7656 31.8287 18.0137C31.9414 18.2617 31.9997 18.53 32 18.8012V30.0529C32 30.5693 31.7893 31.0646 31.4142 31.4297C31.0391 31.7949 30.5304 32 30 32V31.9999ZM17.9993 22.2636H21.9993C22.5295 22.2642 23.0379 22.4695 23.4128 22.8345C23.7877 23.1996 23.9987 23.6945 23.9993 24.2107V30.0532L30 30.0529V18.8012L19.9993 9.94987L10 18.8011V30.0528L15.9993 30.0521V24.2107C15.9998 23.6945 16.2108 23.1996 16.5857 22.8345C16.9606 22.4695 17.469 22.2642 17.9993 22.2636V22.2636Z" fill="#EDBF7C"/>
</svg>
