<svg width="40" height="40" viewBox="0 0 40 40" fill="none" xmlns="http://www.w3.org/2000/svg">
<path d="M28.2938 25.6894C27.8423 24.679 27.1871 23.7612 26.3646 22.9872C25.5446 22.2109 24.5733 21.592 23.5042 21.1646C23.4947 21.1601 23.4851 21.1578 23.4755 21.1533C24.9667 20.1357 25.9361 18.4781 25.9361 16.608C25.9361 13.5101 23.2792 11 20 11C16.7208 11 14.0639 13.5101 14.0639 16.608C14.0639 18.4781 15.0333 20.1357 16.5245 21.1555C16.5149 21.16 16.5053 21.1623 16.4958 21.1668C15.4234 21.5942 14.4612 22.207 13.6354 22.9894C12.8137 23.7641 12.1586 24.6817 11.7062 25.6917C11.2617 26.6805 11.022 27.7406 11.0001 28.8146C10.9994 28.8387 11.0039 28.8627 11.0132 28.8852C11.0226 28.9077 11.0366 28.9281 11.0544 28.9454C11.0723 28.9627 11.0936 28.9764 11.1171 28.9858C11.1407 28.9952 11.166 29 11.1915 29H12.6277C12.733 29 12.8168 28.9209 12.8192 28.8236C12.8671 27.0779 13.6091 25.443 14.9208 24.2038C16.278 22.9216 18.0803 22.2161 20 22.2161C21.9197 22.2161 23.722 22.9216 25.0792 24.2038C26.3909 25.443 27.1329 27.0779 27.1808 28.8236C27.1832 28.9231 27.267 29 27.3723 29H28.8085C28.834 29 28.8593 28.9952 28.8829 28.9858C28.9064 28.9764 28.9277 28.9627 28.9456 28.9454C28.9634 28.9281 28.9774 28.9077 28.9868 28.8852C28.9961 28.8627 29.0006 28.8387 28.9999 28.8146C28.976 27.7337 28.739 26.6822 28.2938 25.6894V25.6894ZM20 20.4975C18.9013 20.4975 17.8673 20.0927 17.0894 19.3578C16.3115 18.6229 15.883 17.646 15.883 16.608C15.883 15.5701 16.3115 14.5932 17.0894 13.8583C17.8673 13.1234 18.9013 12.7186 20 12.7186C21.0987 12.7186 22.1327 13.1234 22.9106 13.8583C23.6885 14.5932 24.117 15.5701 24.117 16.608C24.117 17.646 23.6885 18.6229 22.9106 19.3578C22.1327 20.0927 21.0987 20.4975 20 20.4975Z" fill="#EDBF7C"/>
</svg>
