<svg width="40" height="40" viewBox="0 0 40 40" fill="none" xmlns="http://www.w3.org/2000/svg">
<path d="M28.2939 25.6894C27.8424 24.679 27.1871 23.7612 26.3646 22.9872C25.5447 22.2109 24.5733 21.592 23.5043 21.1646C23.4947 21.1601 23.4851 21.1578 23.4756 21.1533C24.9668 20.1357 25.9362 18.4781 25.9362 16.608C25.9362 13.5101 23.2793 11 20.0001 11C16.7208 11 14.0639 13.5101 14.0639 16.608C14.0639 18.4781 15.0333 20.1357 16.5246 21.1555C16.515 21.16 16.5054 21.1623 16.4958 21.1668C15.4235 21.5942 14.4613 22.207 13.6355 22.9894C12.8138 23.7641 12.1586 24.6817 11.7062 25.6917C11.2618 26.6805 11.0221 27.7406 11.0001 28.8146C10.9995 28.8387 11.004 28.8627 11.0133 28.8852C11.0226 28.9077 11.0366 28.9281 11.0545 28.9454C11.0723 28.9627 11.0937 28.9764 11.1172 28.9858C11.1408 28.9952 11.1661 29 11.1916 29H13.5001C12.5001 29 13.6054 29 13.5001 29C14.5001 29 12.6278 29 16.4958 29C18.5001 29 18.5804 29 20.5001 29C22.4197 29 22.5001 29 25.0001 29C27.0001 29 26.5001 29 27.0001 29C26.8947 29 27.5001 29 27.0001 29H28.8085C28.8341 29 28.8594 28.9952 28.8829 28.9858C28.9065 28.9764 28.9278 28.9627 28.9456 28.9454C28.9635 28.9281 28.9775 28.9077 28.9868 28.8852C28.9962 28.8627 29.0006 28.8387 29 28.8146C28.9761 27.7337 28.7391 26.6822 28.2939 25.6894Z" fill="#EDBF7C"/>
</svg>
