<svg width="40" height="40" viewBox="0 0 40 40" fill="none" xmlns="http://www.w3.org/2000/svg">
<path fill-rule="evenodd" clip-rule="evenodd" d="M24.3257 22.8987L29.7057 28.2787C29.8948 28.468 30.001 28.7246 30.0009 28.9921C30.0008 29.2596 29.8945 29.5161 29.7052 29.7052C29.516 29.8943 29.2594 30.0005 28.9919 30.0004C28.7244 30.0003 28.4678 29.894 28.2787 29.7047L22.8987 24.3247C21.2905 25.5704 19.268 26.1566 17.2429 25.9641C15.2177 25.7716 13.342 24.8148 11.9972 23.2884C10.6525 21.7619 9.93973 19.7806 10.004 17.7473C10.0683 15.714 10.9047 13.7816 12.3431 12.3431C13.7816 10.9047 15.714 10.0683 17.7473 10.004C19.7806 9.93973 21.7619 10.6525 23.2884 11.9972C24.8148 13.342 25.7716 15.2177 25.9641 17.2429C26.1566 19.268 25.5704 21.2905 24.3247 22.8987H24.3257ZM18.0007 23.9997C19.592 23.9997 21.1182 23.3676 22.2434 22.2424C23.3686 21.1172 24.0007 19.591 24.0007 17.9997C24.0007 16.4084 23.3686 14.8823 22.2434 13.7571C21.1182 12.6319 19.592 11.9997 18.0007 11.9997C16.4094 11.9997 14.8833 12.6319 13.7581 13.7571C12.6329 14.8823 12.0007 16.4084 12.0007 17.9997C12.0007 19.591 12.6329 21.1172 13.7581 22.2424C14.8833 23.3676 16.4094 23.9997 18.0007 23.9997V23.9997Z" fill="#EDBF7C"/>
</svg>
