<svg width="40" height="40" viewBox="0 0 40 40" fill="none" xmlns="http://www.w3.org/2000/svg">
<g filter="url(#filter0_d_1_91)">
<path d="M30.734 16.5814L28.7113 14.5586C28.5481 14.3976 28.3305 14.3036 28.1014 14.2951C27.8724 14.2866 27.6484 14.3643 27.4738 14.5128C27.2041 14.7423 26.8581 14.8622 26.5043 14.8486C26.1504 14.835 25.8146 14.689 25.5634 14.4394C25.314 14.1882 25.168 13.8525 25.1545 13.4987C25.1409 13.145 25.2606 12.799 25.49 12.5294C25.6385 12.3547 25.7162 12.1308 25.7077 11.9017C25.6992 11.6726 25.6052 11.455 25.4442 11.2918L23.4196 9.26668C23.2486 9.09591 23.0167 9 22.775 9C22.5332 9 22.3014 9.09591 22.1303 9.26668L18.9058 12.4909C18.7067 12.6907 18.5566 12.9339 18.4672 13.2014C18.4497 13.2528 18.4207 13.2995 18.3823 13.3379C18.3439 13.3763 18.2972 13.4054 18.2458 13.4228C17.9782 13.5122 17.735 13.6625 17.5353 13.8619L9.26667 22.131C9.09591 22.3021 9 22.534 9 22.7757C9 23.0174 9.09591 23.2493 9.26667 23.4204L11.2917 25.4432C11.4549 25.6042 11.6724 25.6982 11.9015 25.7067C12.1306 25.7152 12.3546 25.6375 12.5292 25.489C12.7982 25.2577 13.1447 25.1365 13.4993 25.1498C13.8538 25.1631 14.1903 25.3099 14.4412 25.5608C14.6921 25.8117 14.8389 26.1482 14.8522 26.5028C14.8655 26.8574 14.7443 27.2039 14.513 27.4729C14.3645 27.6476 14.2868 27.8715 14.2953 28.1006C14.3038 28.3297 14.3978 28.5473 14.5588 28.7105L16.5815 30.7333C16.7526 30.9041 16.9844 31 17.2262 31C17.4679 31 17.6998 30.9041 17.8708 30.7333L26.1395 22.4642C26.3388 22.2647 26.489 22.0216 26.5786 21.7542C26.5959 21.7026 26.625 21.6557 26.6635 21.6172C26.702 21.5787 26.7488 21.5497 26.8004 21.5323C27.0678 21.4429 27.3108 21.2928 27.5104 21.0937L30.7345 17.869C30.9046 17.6979 31.0001 17.4664 31 17.2251C30.9999 16.9838 30.9043 16.7524 30.734 16.5814ZM20.2666 15.2224C20.1985 15.2905 20.1177 15.3445 20.0287 15.3814C19.9397 15.4182 19.8443 15.4372 19.748 15.4372C19.6517 15.4372 19.5563 15.4182 19.4673 15.3814C19.3783 15.3445 19.2975 15.2905 19.2294 15.2224L18.7018 14.6948C18.5676 14.5565 18.4932 14.371 18.4947 14.1784C18.4961 13.9858 18.5733 13.8014 18.7096 13.6652C18.8458 13.529 19.0302 13.4519 19.2228 13.4505C19.4155 13.4492 19.6009 13.5237 19.7391 13.6579L20.2666 14.1851C20.3348 14.2532 20.3888 14.334 20.4257 14.423C20.4625 14.512 20.4815 14.6074 20.4815 14.7037C20.4815 14.8 20.4625 14.8954 20.4257 14.9844C20.3888 15.0734 20.3348 15.1542 20.2666 15.2224ZM22.2834 17.2392C22.1459 17.3766 21.9594 17.4538 21.765 17.4538C21.5706 17.4538 21.3841 17.3766 21.2466 17.2392L20.7424 16.735C20.6743 16.6669 20.6203 16.586 20.5834 16.497C20.5466 16.408 20.5276 16.3127 20.5276 16.2163C20.5276 16.12 20.5466 16.0246 20.5834 15.9356C20.6203 15.8467 20.6743 15.7658 20.7424 15.6977C20.88 15.5601 21.0665 15.4829 21.261 15.4829C21.3574 15.4829 21.4527 15.5018 21.5417 15.5387C21.6307 15.5756 21.7116 15.6296 21.7797 15.6977L22.2838 16.2019C22.3522 16.27 22.4064 16.3509 22.4435 16.44C22.4805 16.5291 22.4996 16.6247 22.4996 16.7211C22.4997 16.8176 22.4807 16.9132 22.4437 17.0023C22.4068 17.0915 22.3526 17.1724 22.2843 17.2406L22.2834 17.2392ZM24.3001 19.2561C24.232 19.3242 24.1512 19.3782 24.0622 19.4151C23.9732 19.4519 23.8778 19.4709 23.7815 19.4709C23.6852 19.4709 23.5898 19.4519 23.5008 19.4151C23.4118 19.3782 23.331 19.3242 23.2629 19.2561L22.7587 18.7518C22.6245 18.6136 22.5501 18.4281 22.5516 18.2355C22.553 18.0428 22.6302 17.8585 22.7665 17.7223C22.9027 17.5861 23.0871 17.509 23.2797 17.5076C23.4723 17.5063 23.6578 17.5807 23.7959 17.715L24.3001 18.2192C24.3687 18.2872 24.4231 18.3681 24.4603 18.4571C24.4976 18.5462 24.5168 18.6418 24.5171 18.7383C24.5173 18.8348 24.4984 18.9305 24.4616 19.0197C24.4248 19.109 24.3707 19.1901 24.3024 19.2583L24.3001 19.2561ZM26.3366 21.2977C26.2685 21.3658 26.1876 21.4198 26.0987 21.4567C26.0097 21.4936 25.9143 21.5125 25.818 21.5125C25.7216 21.5125 25.6263 21.4936 25.5373 21.4567C25.4483 21.4198 25.3674 21.3658 25.2993 21.2977L24.775 20.7705C24.7054 20.7026 24.6501 20.6216 24.6121 20.5321C24.5742 20.4426 24.5544 20.3465 24.5539 20.2493C24.5535 20.1521 24.5723 20.0557 24.6094 19.9659C24.6465 19.876 24.7011 19.7945 24.77 19.7259C24.8389 19.6573 24.9207 19.6032 25.0108 19.5665C25.1008 19.5299 25.1972 19.5115 25.2944 19.5124C25.3916 19.5133 25.4876 19.5336 25.5769 19.572C25.6662 19.6103 25.747 19.6661 25.8145 19.736L26.3393 20.2626C26.4074 20.3308 26.4614 20.4117 26.4983 20.5007C26.5351 20.5897 26.554 20.6851 26.554 20.7814C26.5539 20.8777 26.5349 20.9731 26.498 21.0621C26.4611 21.151 26.407 21.2319 26.3389 21.3L26.3366 21.2977Z" fill="#EDBF7C"/>
</g>
<defs>
<filter id="filter0_d_1_91" x="-4" y="0" width="48" height="48" filterUnits="userSpaceOnUse" color-interpolation-filters="sRGB">
<feFlood flood-opacity="0" result="BackgroundImageFix"/>
<feColorMatrix in="SourceAlpha" type="matrix" values="0 0 0 0 0 0 0 0 0 0 0 0 0 0 0 0 0 0 127 0" result="hardAlpha"/>
<feOffset dy="4"/>
<feGaussianBlur stdDeviation="2"/>
<feComposite in2="hardAlpha" operator="out"/>
<feColorMatrix type="matrix" values="0 0 0 0 0 0 0 0 0 0 0 0 0 0 0 0 0 0 0.25 0"/>
<feBlend mode="normal" in2="BackgroundImageFix" result="effect1_dropShadow_1_91"/>
<feBlend mode="normal" in="SourceGraphic" in2="effect1_dropShadow_1_91" result="shape"/>
</filter>
</defs>
</svg>
