<svg width="40" height="40" viewBox="0 0 40 40" fill="none" xmlns="http://www.w3.org/2000/svg">
<path d="M25.1585 14.8437C24.7686 14.4536 24.5403 13.9307 24.5192 13.3795C24.4982 12.8283 24.686 12.2895 25.0451 11.8709C25.0748 11.8361 25.0902 11.7913 25.0883 11.7456C25.0864 11.6998 25.0673 11.6565 25.0348 11.6243L22.9662 9.55338C22.932 9.5192 22.8856 9.5 22.8373 9.5C22.7889 9.5 22.7426 9.5192 22.7084 9.55338L19.4112 12.8506C19.2895 12.9722 19.1979 13.1205 19.1435 13.2837C19.0894 13.4473 18.9978 13.596 18.8762 13.718C18.7546 13.8401 18.6062 13.9321 18.4428 13.9868C18.2794 14.0412 18.131 14.1329 18.0092 14.2545L9.55338 22.7084C9.5192 22.7426 9.5 22.7889 9.5 22.8373C9.5 22.8856 9.5192 22.932 9.55338 22.9662L11.622 25.0348C11.6542 25.0673 11.6975 25.0864 11.7432 25.0883C11.789 25.0902 11.8337 25.0748 11.8685 25.0451C12.2871 24.6856 12.826 24.4975 13.3774 24.5184C13.9288 24.5393 14.4519 24.7677 14.842 25.1579C15.2322 25.548 15.4606 26.0711 15.4815 26.6225C15.5024 27.1739 15.3143 27.7128 14.9548 28.1313C14.9251 28.1662 14.9096 28.2109 14.9116 28.2567C14.9135 28.3024 14.9326 28.3457 14.9651 28.3779L17.0337 30.4465C17.0679 30.4807 17.1143 30.4999 17.1626 30.4999C17.2109 30.4999 17.2573 30.4807 17.2915 30.4465L25.7478 21.9907C25.8694 21.8689 25.961 21.7204 26.0154 21.5571C26.0696 21.3935 26.1611 21.2448 26.2827 21.1228C26.4044 21.0007 26.5528 20.9087 26.7162 20.854C26.8794 20.7996 27.0277 20.708 27.1493 20.5863L30.4465 17.2892C30.4807 17.255 30.4999 17.2086 30.4999 17.1603C30.4999 17.1119 30.4807 17.0655 30.4465 17.0313L28.3779 14.9628C28.3457 14.9302 28.3024 14.9111 28.2567 14.9092C28.2109 14.9073 28.1662 14.9227 28.1313 14.9524C27.7133 15.3121 27.1748 15.5008 26.6236 15.4806C26.0725 15.4605 25.5492 15.233 25.1585 14.8437V14.8437Z" stroke="#EDBF7C" stroke-width="1.5" stroke-miterlimit="10"/>
<path d="M19.7422 14.5831L18.9683 13.8092M21.8056 16.6466L21.2895 16.1309M23.8691 18.7105L23.3534 18.1944M26.1908 21.0317L25.4169 20.2578" stroke="#EDBF7C" stroke-width="1.5" stroke-miterlimit="10" stroke-linecap="round"/>
</svg>
